<?xml version="1.0" encoding="UTF-8"?>
<svg id="Layer_2" data-name="Layer 2" xmlns="http://www.w3.org/2000/svg" viewBox="0 0 1747.13 1800.14">
  <g id="Layer_1-2" data-name="Layer 1">
    <g>
      <g>
        <path d="M367.32,422.34h0c9.05-27.95,10.74-68.09-5.91-94.79-9.41-15.12-23.91-24.46-41.85-27.04-26.52-3.81-54.66,2.46-79.48,8l-9.53,2.11c-4.3.93-8.66,1.93-13.07,3,11.87-27.48,6.85-59.33-12.88-81.83-21-24.32-53.93-35.23-88-29.18-17.93,3.34-34.97,10.4-50,20.73-3.71,2.53-7.27,5.39-10.71,8.16-9,7.23-17.5,14-27.12,13.86-.59-.03-1.18-.03-1.77,0-9.22-2-19.07,2.45-24.12,11.22-5.16,8.65-3.24,19.78,4.51,26.21,43.08,37.21,81.65,79.36,114.9,125.57,4.48,6.27,8.89,13,13.55,20.19,23,35.27,49.06,75.25,98,75.34,12.4,0,24.5-2.33,36.48-6.12,15.29-4.84,30.39-12,45.62-19.67,26.39-13.21,43.67-32,51.38-55.76h0ZM126,341.63c-18.68-22.52-38.61-43.97-59.71-64.24,5-3.17,9.65-6.67,14.25-10.12,5.28-3.95,10.27-7.69,15.53-10.86,18.59-11.15,45.93-18,67-3.57,16.73,11.44,21.64,30.53,12.2,47.49-10.27,18.49-30.53,31.26-49.27,41.3ZM281.62,445.9h0c-19.39,8.69-41.34,18.55-59.92,12.29-15.66-5.27-26.54-20-38.15-37.36l-2.22-3.32c-8.78-13.1-17.78-26.55-27.27-39.68,46-16.16,90.57-27.34,132.73-33.16,21.72-3,35.94-2.63,39.72,8.53,4.88,14.44,4.55,38.34-.78,55.58-5.21,16.85-19.54,26.16-41,35.73l-3.11,1.39h0Z"/>
        <path d="M339.65,161.14c12.22,19.16,18.19,42.38,24,64.85l1.36,5.27c16.37,63.16,46.35,116.3,86.34,176.67,4.73,7.56,13.46,11.64,22.29,10.42,3.93-.49,7.7-1.88,11-4.07,11-7.27,13.74-20.43,6.56-31.27-29.28-44.2-55-84.82-71.05-130.86l8.43-4c40.79-19.18,87-40.91,104.06-89.65,8.91-25.46,5.69-52.09-8.85-73-14.26-20.58-37.41-32.68-63.55-33.25-21.51-.48-43.4,2.36-64.52,5.11-8,1-15.93,2.07-23.78,2.91-18.28,1.95-48.87,5.25-58.87,32.55-8.63,23.6,5.77,41.54,17.35,56,3.29,3.94,6.37,8.05,9.23,12.32h0ZM359,109.6c7.22-2.94,17-3.46,26.4-4,4.11-.22,8.11-.44,11.88-.83l13.42-1.41c8.92-.94,17.83-1.89,26.75-2.76,34.85-3.42,49.05,2.76,52.46,22.8,6.63,38.93-33.37,60.89-82.79,83.32-4.62-17.38-9.77-35.06-17.57-51.92-4.87-10.61-10.95-20.61-18.13-29.81-1.22-1.56-2.79-3.33-4.48-5.24-2.2-2.48-6.39-7.2-8-10.15h.06Z"/>
        <path d="M619.37,340.77h0c1.99.49,4.03.71,6.08.66,9.42-.19,17.49-6.8,19.52-16,7.64-31.6,6.83-63.72,6-94.78-.82-32.77-1.61-63.73,6.61-94.44,13.42-49.72,54.55-97.67,107.42-93.07l1,.09c2.45.13,4.88.49,7.27,1.07.38,2.78-.24,8.9-.56,12-.32,3.1-.58,5.84-.61,8l-2.2,157.46c0,2.37-.08,4.8-.14,7.25-.58,24.81-1.29,55.68,21.86,75.3,19.25,16.32,50,18.11,74.75,4.41,31.32-17.34,43.07-53.91,47.29-74.16s-3.66-35.91-20.09-39.96c-6.69-1.64-14.44-.78-21.84,2.4-5.15,2.22-8.72,5.75-11.87,8.86-2.14,2.11-4.16,4.11-5.92,4.82-12.77,5.16-16.1,18.89-11.94,29.18,3.6,8.93,11.71,13.71,20.51,12.55-1.14,2.15-2.4,4.23-3.77,6.24-6.88,10-21.32,17.59-31.48,16.59-5.85-.6-9.81-3.8-12.45-10.07-3.1-7.36-2.81-17.07-2.53-26.46.06-2.08.12-4.13.15-6.13l2.06-149c.06-3.79.41-8.27.78-13,1.72-21.92,4.31-55-24-65.34-20.79-7.57-47.22-6.91-72.51,1.81-47.26,16.3-83.9,57-100.51,111.63-7.91,26-11.66,55.48-11.46,90,.05,9.54.43,19.15.79,28.46,1.06,27.15,2,52.79-4.09,78.2-2.81,11.63,4,22.56,15.88,25.43h0Z"/>
        <path d="M1008.16,391.23h0c12.18,2.05,24.18-5,27.75-16.5,4.47-14.83,7.5-30.05,9.06-45.45,15-38.05,47.44-69,78.79-98.93l9.36-8.95c13.3-12.82,25.88-26.07,37.75-39.75l-8.19,33.87c-11.43,47.29-24.39,100.89-23.75,156.32.1,8.31,4.12,15.3,11,19.19,3.93,2.18,8.38,3.22,12.87,3,4.08-.17,8.05-1.35,11.57-3.42,7.12-4.16,11.38-11.88,11.11-20.12-.57-48.88,11.24-97.64,22.66-144.8l38.26-157.89c2.76-11.4-3.4-22.71-14.75-26.88-11.45-4.23-23.22.22-28.62,10.83-26.27,51.6-63,98.57-119.07,152.33-10.34,9.91-22.5,21.92-34.36,35.31.65-10.82,1.86-21.59,3.63-32.28,7.22-42.49,20.8-85.17,33.92-126.43,4.71-14.83,9.41-29.61,13.83-44.36,3.66-12.23-2.66-23.8-15-27.49-11.43-3.42-25.81,1.54-30.06,15.76-4.38,14.63-9,29.3-13.72,44-13.34,42-27.14,85.35-34.62,129.28-4,23.72-4.74,47.82-5.43,71.13-.5,16.87-1,34.3-2.81,51.09-5.52,15.74-8.62,32.23-9.18,48.9-.36,11.43,6.89,20.37,18,22.24h0Z"/>
        <path d="M1297.38,461.16c28-23.57,36.92-57.28,45.58-89.87,4.74-17.82,9.21-34.65,16.57-49.72,2.78-5.7,5.63-11.56,8.5-17.51.5,1.34,1,2.7,1.49,4.05,19.4,52.66,39.45,107.12,48.5,162.55,2.38,14.52,15,21.8,27,21.19.96-.05,1.93-.16,2.88-.31,12.83-2.1,20.63-12.9,18.54-25.69-10.04-61.46-31.59-120.54-52.44-177.67-3.96-10.85-7.89-21.7-11.78-32.55-.12-.32-.24-.65-.37-1,8.61-4.55,18.15-8,28.09-11.62l6.52-2.37c20.49-7.59,41.94-17,59.9-34.24,9.56-9.19,9.76-22.87.48-32.53-8.68-9-24.38-11.93-35.6-1.13-13.79,13.25-31.82,19.95-50.93,27,4.97-16.8,8.71-33.94,11.18-51.29,2.16-15.47-9.42-26.52-21.87-28.27-13.22-1.85-24.13,6.3-26,19.39-4.36,31.1-13.45,62.41-28.6,98.4-3.42,3.8-5.53,8.6-6,13.69-5.63,12.58-12.13,26.21-20.38,42.68-11.27,22.51-19.88,46.26-25.65,70.76l-1.32,5.64c-4.5,19.42-9.15,39.5-23,51.22-12.23,10.3-11,26.65-2.66,36.5s21.51,11,31.37,2.7Z"/>
        <path d="M1738.31,303.38h0c-1.27-5.34-2.73-10.67-4.19-16-5.27-19.17-10.23-37.29-6.06-55.53,2.45-10.7-3.19-20.43-13.73-23.65s-21.23,1.23-25.93,10.39l-.26.28c-17.87,19.61-34.75,39.28-44.9,64.19-1.15,2.83-2.25,5.65-3.35,8.46-3.8,9.67-7.39,18.82-12.52,27.41-5.35,8.94-11.48,17.81-17.41,26.4-2.26,3.26-4.5,6.52-6.73,9.79l-50.77,74.87c-3.76,5.54-7.63,11.06-11.5,16.6-12.4,17.72-25.22,36-35.17,55.81-3.41,6.32-3.09,13.99.84,20,4.46,6.56,12.03,10.29,19.95,9.85,7.51-.41,14.19-4.89,17.42-11.68,9.58-19,22.47-37.3,34.94-55,4.6-6.52,9.18-13,13.61-19.55l19.62-28.91c26.09-3,60.27,4.22,89.83,19.16-3.46,32.08-9.52,64.42-15.38,95.77l-.25,1.3c-1.52,7.09.97,14.45,6.48,19.17,4.69,3.93,10.78,5.79,16.86,5.14,1.71-.18,3.38-.56,5-1.13,7.01-2.43,12.12-8.51,13.31-15.83,8.62-46,19.35-103.34,19.1-159.64.03-26.14-2.93-52.2-8.81-77.67h0ZM1704.93,391.7c-11.57-4.32-23.4-7.9-35.43-10.71-9.57-2.38-19.28-4.22-29.06-5.51l3-4.34c13-19.06,26.38-38.77,35.06-61.55,3.16-8.32,7.05-16.35,11.61-24,1,3.85,2,7.65,3,11.36,6.87,24.82,10.8,50.36,11.69,76.1.2,6.08.24,12.25.13,18.65h0Z"/>
      </g>
      <g>
        <path d="M1076.32,968.16h0c20.23-11.52,37.55-26.85,54.3-41.68,14.76-13.08,30-26.6,46.91-37,6.3-3.71,10.08-10.56,9.85-17.87-.26-7.82-4.6-14.94-11.44-18.75-6.23-3.37-13.43-3-19.77.87-19.95,12.31-38.67,26.52-55.9,42.42l-1.07,1c-15.2,14-29.56,27.32-47.4,37-8.81,4.79-18.14,9.24-27.16,13.54-5.28,2.52-10.64,5.07-16,7.73,13.19-32.22,29.87-70,50-106,5.74-10.27,2.16-22.44-8.33-28.31-10.22-5.72-22.17-2.47-27.79,7.57-29.14,52.07-51.24,108.53-72.61,163.14l-4.13,10.54c-23.76,60.61-46.13,123-66.78,181.46-.7-2.06-1.4-4.11-2.13-6.15-4.49-12.57-17.65-16.34-27.8-12.72-10.74,3.83-15.78,14.33-12,25,1.24,3.46,2.42,7,3.61,10.57,4.62,13.8,9.38,28,17.75,40.44-37.58,102.59-78.22,202.89-120.85,298.23-4.53,3.94-7.09,9.68-7,15.68-29.25,64.91-59.69,130-86.58,187.57-5.71,12.23,1.07,24.31,10.92,28.91,2.74,1.3,5.74,1.98,8.77,2,7.13,0,13.61-4,17-11.26,31.46-67.3,59.82-128.19,87.78-190.34,15.67-4.27,31.62-7.41,47.73-9.4,7.73-.83,14.38-5.82,17.35-13,3.11-7.3,2.31-15.78-2-21.58-3.93-5.24-10.25-7.77-17.29-6.91-8.3,1-16.56,2.24-24.67,3.69,18-40.73,33.94-78.18,48.68-114.07,29-70.65,55.08-143.62,80.28-214.18,17.16-48.06,34.9-97.76,53.41-146.22l9.59-25.16c.15-.17.31-.33.46-.51,16.66-18.77,39-29.24,62.72-40.32,10.43-4.99,21.27-10.1,31.59-15.93h0Z"/>
        <rect x="574.95" y="754.77" width="16.66" height="398.82" transform="translate(-463.37 1348.15) rotate(-79.19)"/>
        <rect x="1206.14" y="1045.28" width="351.19" height="16.66" transform="translate(-81.03 115.74) rotate(-4.66)"/>
        <rect x="1223.62" y="927.21" width="240.75" height="16.66" transform="translate(-270.13 659.59) rotate(-25.14)"/>
        <rect x="272.14" y="1178.36" width="398.91" height="16.66" transform="translate(-17.35 7.04) rotate(-.84)"/>
        <rect x="736.55" y="572.94" width="16.66" height="346.21" transform="translate(-309.33 737.86) rotate(-44.6)"/>
        <rect x="275.1" y="1699.47" width="223.63" height="16.66" transform="translate(-969.02 599.77) rotate(-37.98)"/>
        <rect x="279.53" y="1470.11" width="296.91" height="16.65" transform="translate(-512.49 260.06) rotate(-21.52)"/>
        <polygon points="1170.5 1214.61 1508.01 1333.38 1511.94 1334.76 1517.47 1319.04 1176.03 1198.89 1170.5 1214.61"/>
        <rect x="1202.56" y="1359.64" width="16.66" height="254.65" transform="translate(-658.59 1914.01) rotate(-63.71)"/>
        <rect x="1076.84" y="1582.36" width="16.66" height="237.45" transform="translate(-813.46 1018.1) rotate(-37.68)"/>
      </g>
    </g>
  </g>
</svg>